#!OML:ASF I:\Actors\actors\Patient Classification 1\Patient 1\Session 1\Subject1.ASF
:FULLY-SPECIFIED
:DEGREES
857
root 0.54392 17.5503 9.29074 10.3749 0.0165041 -9.54505
lowerback 2.95639 0.55923 5.40182
upperback -9.66239 1.40423 1.46994
thorax -11.997 0.256437 -1.60696
lowerneck 5.62087 -2.74747 -3.56374
upperneck -9.79151 -2.62597 14.2932
head -3.57069 -1.86873 5.10094
rclavicle -1.0138e-014 -1.03368e-014
rhumerus 16.3131 44.9145 -67.1878
rradius 135.626
rwrist 25.1078
rhand -24.8864 -31.7461
rfingers 7.12502
rthumb 1.62127 -61.7197
lclavicle -1.0138e-014 -1.03368e-014
lhumerus 9.27894 -51.6577 73.0737
lradius 136.434
lwrist -13.6092
lhand -39.0294 -41.6814
lfingers 7.12502
lthumb -12.032 -12.0473
rfemur -7.8998 21.1488 25.9549
rtibia 6.31594
rfoot -11.6501 -21.327
rtoes 0.371198
lfemur 5.2628 -50.0289 -10.9057
ltibia -5.10411
lfoot -25.3298 55.7052
ltoes 12.108
858
root 0.539979 17.55 9.28757 10.4253 0.0990562 -9.62847
lowerback 2.945 0.542628 5.40787
upperback -9.67539 1.38755 1.52272
thorax -12.0078 0.250646 -1.55071
lowerneck 5.79387 -2.75942 -3.56895
upperneck -10.3308 -2.59475 14.1839
head -3.76548 -1.87192 5.08373
rclavicle -3.67752e-015 7.95139e-015
rhumerus 15.8205 44.5723 -67.9733
rradius 135.969
rwrist 24.9176
rhand -25.6613 -32.8991
rfingers 7.12502
rthumb 0.872909 -62.8771
lclavicle -3.67752e-015 7.95139e-015
lhumerus 8.94775 -51.2983 73.7869
lradius 136.698
lwrist -13.0933
lhand -40.2285 -42.3996
lfingers 7.12502
lthumb -13.188 -12.8368
rfemur -7.98417 21.2019 26.0423
rtibia 6.36416
rfoot -11.734 -21.4164
rtoes 0.650336
lfemur 5.10814 -50.0534 -10.6527
ltibia -5.11813
lfoot -25.2971 55.6905
ltoes 12.1199
859
root 0.535789 17.551 9.28121 10.4903 0.200706 -9.69146
lowerback 2.97271 0.500632 5.40482
upperback -9.65921 1.33793 1.58451
thorax -12.0112 0.23087 -1.47596
lowerneck 5.79924 -2.759 -3.66609
upperneck -10.797 -2.55971 14.1311
head -3.9076 -1.86368 5.09434
rclavicle -8.94531e-016 -2.06736e-014
rhumerus 15.8312 44.2707 -68.282
rradius 136.493
rwrist 24.3231
rhand -25.9179 -34.0325
rfingers 7.12502
rthumb 0.625019 -64.0113
lclavicle -8.94531e-016 -2.06736e-014
lhumerus 9.16149 -50.8744 74.0065
lradius 137.317
lwrist -11.7439
lhand -40.7799 -42.4967
lfingers 7.12502
lthumb -13.7195 -12.969
rfemur -8.12422 21.2198 26.0943
rtibia 6.43093
rfoot -11.7569 -21.5044
rtoes 0.706427
lfemur 4.80309 -49.893 -10.2882
ltibia -5.13336
lfoot -24.8829 55.5584
ltoes 11.6868
860
root 0.532873 17.552 9.27434 10.5464 0.2827 -9.71646
lowerback 3.0119 0.492719 5.39558
upperback -9.56354 1.32478 1.58437
thorax -11.9247 0.228873 -1.47035
lowerneck 5.49331 -2.80715 -3.55473
upperneck -11.0831 -2.5978 13.9953
head -3.94094 -1.87848 5.03462
rclavicle 9.93923e-016 -6.36111e-015
rhumerus 16.1768 43.7011 -68.3651
rradius 137.184
rwrist 23.1282
rhand -25.3139 -34.1935
rfingers 7.12502
rthumb 1.20841 -64.1699
lclavicle 9.93923e-016 -6.36111e-015
lhumerus 10.0552 -50.5347 73.6992
lradius 138.197
lwrist -10.0427
lhand -40.6638 -41.9854
lfingers 7.12502
lthumb -13.6076 -12.4501
rfemur -8.25539 21.205 26.0977
rtibia 6.47174
rfoot -11.7351 -21.5453
rtoes 0.764308
lfemur 4.57495 -49.847 -10.0421
ltibia -5.14323
lfoot -24.7188 55.4701
ltoes 11.5189
861
root 0.531436 17.5523 9.26917 10.5701 0.347935 -9.74905
lowerback 2.98997 0.468885 5.38852
upperback -9.56454 1.29124 1.59431
thorax -11.9149 0.214191 -1.45104
lowerneck 6.03094 -2.80201 -3.50891
upperneck -11.6398 -2.5305 13.9643
head -4.20847 -1.88205 5.04198
rclavicle 1.39149e-015 2.46493e-014
rhumerus 16.4849 43.2545 -68.5068
rradius 138.033
rwrist 21.4856
rhand -24.1024 -33.4556
rfingers 7.12502
rthumb 2.37851 -63.422
lclavicle 1.39149e-015 2.46493e-014
lhumerus 10.8787 -50.2967 73.4167
lradius 139.25
lwrist -8.14725
lhand -40.737 -41.6478
lfingers 7.12502
lthumb -13.6781 -12.1173
rfemur -8.32038 21.1578 26.1238
rtibia 6.48789
rfoot -11.732 -21.5424
rtoes 0.78654
lfemur 4.48383 -49.9601 -9.928
ltibia -5.11617
lfoot -24.6972 55.5053
ltoes 11.4196
862
root 0.529792 17.5525 9.26454 10.5663 0.398836 -9.83713
lowerback 3.13835 0.507231 5.5211
upperback -9.18053 1.34071 1.52186
thorax -11.5549 0.235996 -1.61355
lowerneck 4.3971 -2.98866 -3.38704
upperneck -11.4251 -2.7875 14.0658
head -3.83798 -1.9555 5.01924
rclavicle 1.95803e-014 -3.49861e-014
rhumerus 18.2536 42.2842 -67.7007
rradius 139.11
rwrist 19.0146
rhand -22.3903 -32.6055
rfingers 7.12502
rthumb 4.03184 -62.5471
lclavicle 1.95803e-014 -3.49861e-014
lhumerus 13.7582 -49.862 71.5968
lradius 140.241
lwrist -5.87881
lhand -41.2967 -42.087
lfingers 7.12502
lthumb -14.2175 -12.5936
rfemur -8.33857 21.1351 26.2304
rtibia 6.49
rfoot -11.6905 -21.5504
rtoes 0.623476
lfemur 4.50134 -50.2274 -9.84982
ltibia -5.07899
lfoot -24.922 55.6942
ltoes 11.4468
863
root 0.52845 17.5528 9.25996 10.5864 0.410885 -9.889
lowerback 3.09378 0.517613 5.55
upperback -9.30631 1.35894 1.50793
thorax -11.6714 0.236641 -1.64585
lowerneck 5.30737 -2.91018 -3.28748
upperneck -11.473 -2.66754 14.024
head -4.02382 -1.9317 5.00743
rclavicle -6.16232e-015 -3.49861e-014
rhumerus 18.6321 42.0652 -67.7253
rradius 140.076
rwrist 17.3858
rhand -21.5146 -31.7328
rfingers 7.12502
rthumb 4.87748 -61.6567
lclavicle -6.16232e-015 -3.49861e-014
lhumerus 14.853 -49.8001 71.0841
lradius 141.247
lwrist -4.19574
lhand -41.9884 -43.6205
lfingers 7.12502
lthumb -14.884 -14.1751
rfemur -8.39136 21.1311 26.2774
rtibia 6.4948
rfoot -11.6377 -21.536
rtoes 0.57756
lfemur 4.51279 -50.4487 -9.80308
ltibia -5.07895
lfoot -25.2324 55.8694
ltoes 11.7007
864
root 0.527305 17.5541 9.25471 10.6096 0.405065 -9.87557
lowerback 3.08245 0.529592 5.51159
upperback -9.36498 1.37311 1.50108
thorax -11.7314 0.244283 -1.63332
lowerneck 5.78385 -2.88459 -3.22779
upperneck -11.3237 -2.65656 13.8767
head -4.06644 -1.93255 4.95757
rclavicle 3.57812e-015 1.19271e-014
rhumerus 19.2583 41.8273 -67.426
rradius 140.817
rwrist 16.4702
rhand -21.4616 -30.8132
rfingers 7.12502
rthumb 4.92868 -60.7359
lclavicle 3.57812e-015 1.19271e-014
lhumerus 16.3007 -49.7723 70.3329
lradius 142.053
lwrist -3.50985
lhand -42.5591 -45.2334
lfingers 7.12502
lthumb -15.4338 -15.8296
rfemur -8.45452 21.1282 26.2409
rtibia 6.52341
rfoot -11.6658 -21.5071
rtoes 0.792935
lfemur 4.40988 -50.3455 -9.73563
ltibia -5.07139
lfoot -25.2139 55.7783
ltoes 11.8204
865
root 0.5258 17.557 9.24937 10.585 0.392083 -9.86848
lowerback 3.14706 0.548553 5.49065
upperback -9.33356 1.39871 1.4845
thorax -11.7325 0.258036 -1.64396
lowerneck 5.77236 -2.86126 -3.24855
upperneck -10.9855 -2.6592 13.9079
head -3.96206 -1.9232 4.9617
rclavicle -2.0773e-014 -2.3059e-014
rhumerus 20.1831 41.6567 -66.827
rradius 141.478
rwrist 16.1504
rhand -21.5359 -30.394
rfingers 7.12502
rthumb 4.85694 -60.3183
lclavicle -2.0773e-014 -2.3059e-014
lhumerus 17.8832 -49.911 69.4363
lradius 142.704
lwrist -3.85665
lhand -43.1335 -45.4375
lfingers 7.12502
lthumb -15.987 -16.0772
rfemur -8.4503 21.1443 26.2359
rtibia 6.54544
rfoot -11.7035 -21.4985
rtoes 1.1014
lfemur 4.34133 -50.1694 -9.69009
ltibia -5.04642
lfoot -25.1107 55.6288
ltoes 11.77
866
root 0.525036 17.5593 9.24392 10.5426 0.359465 -9.86937
lowerback 3.24116 0.57635 5.49779
upperback -9.24391 1.43512 1.4369
thorax -11.6824 0.274738 -1.70585
lowerneck 5.47869 -2.8401 -3.14046
upperneck -10.5956 -2.65947 13.9302
head -3.79672 -1.90569 4.93362
rclavicle 3.77691e-015 -4.77083e-015
rhumerus 21.1417 41.692 -66.2257
rradius 142.052
rwrist 16.2344
rhand -21.3529 -30.3556
rfingers 7.12502
rthumb 5.03364 -60.2759
lclavicle 3.77691e-015 -4.77083e-015
lhumerus 19.2357 -49.9755 68.6515
lradius 143.044
lwrist -4.37903
lhand -43.3448 -45.8185
lfingers 7.12502
lthumb -16.1904 -16.4747
rfemur -8.42719 21.1594 26.2473
rtibia 6.55883
rfoot -11.7055 -21.4881
rtoes 1.24975
lfemur 4.34586 -50.0507 -9.68675
ltibia -5.05295
lfoot -24.9997 55.5551
ltoes 11.7067
867
root 0.525356 17.5604 9.23769 10.5129 0.341789 -9.84451
lowerback 3.17703 0.495943 5.40475
upperback -9.49956 1.33317 1.52199
thorax -11.9499 0.228548 -1.54659
lowerneck 7.21425 -2.59219 -3.30196
upperneck -10.9074 -2.29913 13.9234
head -4.22011 -1.79212 4.99163
rclavicle 5.86415e-015 1.27222e-014
rhumerus 21.001 42.647 -66.3657
rradius 142.499
rwrist 16.3252
rhand -20.9332 -30.2615
rfingers 7.12502
rthumb 5.43886 -60.1717
lclavicle 5.86415e-015 1.27222e-014
lhumerus 18.7058 -50.386 69.1261
lradius 143.248
lwrist -4.65123
lhand -43.3976 -45.5048
lfingers 7.12502
lthumb -16.2412 -16.165
rfemur -8.42316 21.2226 26.2211
rtibia 6.56586
rfoot -11.6902 -21.5378
rtoes 1.33394
lfemur 4.2329 -49.6848 -9.61057
ltibia -5.06098
lfoot -24.4556 55.3064
ltoes 11.3563
868
root 0.526321 17.5606 9.2311 10.4781 0.33219 -9.85767
lowerback 3.21585 0.481966 5.43233
upperback -9.42804 1.31784 1.5393
thorax -11.8921 0.221951 -1.54199
lowerneck 7.26258 -2.52596 -3.24736
upperneck -10.8639 -2.21321 13.8617
head -4.22513 -1.74904 4.95878
rclavicle 1.88845e-015 -2.62396e-014
rhumerus 21.515 43.1932 -66.0125
rradius 142.689
rwrist 16.0784
rhand -20.3667 -30.2903
rfingers 7.12502
rthumb 5.98575 -60.1858
lclavicle 1.88845e-015 -2.62396e-014
lhumerus 19.1431 -50.9302 68.854
lradius 143.138
lwrist -4.15291
lhand -43.0809 -44.7677
lfingers 7.12502
lthumb -15.9363 -15.4033
rfemur -8.41721 21.2848 26.2408
rtibia 6.57475
rfoot -11.6336 -21.5863
rtoes 1.24999
lfemur 4.08902 -49.219 -9.46705
ltibia -5.05635
lfoot -23.8005 54.9724
ltoes 10.8488
869
root 0.527974 17.5594 9.2237 10.4419 0.283494 -9.93327
lowerback 3.33223 0.490564 5.57089
upperback -9.1333 1.33765 1.55052
thorax -11.6203 0.230344 -1.61249
lowerneck 6.03051 -2.57146 -3.16707
upperneck -10.4641 -2.31678 13.8357
head -3.88471 -1.74633 4.90401
rclavicle -1.39149e-015 2.38542e-015
rhumerus 22.4918 43.6089 -65.3221
rradius 142.575
rwrist 15.4407
rhand -20.0722 -30.4908
rfingers 7.12502
rthumb 6.27013 -60.378
lclavicle -1.39149e-015 2.38542e-015
lhumerus 19.8753 -51.2566 68.3549
lradius 142.624
lwrist -3.26874
lhand -42.2594 -44.2033
lfingers 7.12502
lthumb -15.1451 -14.7775
rfemur -8.44006 21.2376 26.3294
rtibia 6.63353
rfoot -11.5612 -21.5175
rtoes 0.774863
lfemur 4.05324 -48.9448 -9.34737
ltibia -5.0602
lfoot -23.566 54.7765
ltoes 10.7119
870
root 0.529427 17.5582 9.21712 10.4307 0.20054 -9.96998
lowerback 3.33692 0.474446 5.63649
upperback -9.03927 1.32154 1.59499
thorax -11.5167 0.223053 -1.5993
lowerneck 5.83325 -2.53262 -3.23397
upperneck -10.3855 -2.27763 13.8609
head -3.82918 -1.71652 4.91546
rclavicle -5.06901e-015 -2.46493e-014
rhumerus 22.7204 44.4455 -65.1168
rradius 142.196
rwrist 14.8834
rhand -20.2935 -30.7586
rfingers 7.12502
rthumb 6.05643 -60.6521
lclavicle -5.06901e-015 -2.46493e-014
lhumerus 19.3121 -51.5647 68.8284
lradius 141.979
lwrist -2.38731
lhand -41.3151 -43.7073
lfingers 7.12502
lthumb -14.2353 -14.2151
rfemur -8.49246 21.2063 26.3619
rtibia 6.70502
rfoot -11.5192 -21.4473
rtoes 0.337828
lfemur 4.06321 -48.8679 -9.3123
ltibia -5.0744
lfoot -23.6387 54.7407
ltoes 10.8225
